<?xml version="1.0" encoding="UTF-8"?>
<!--Generator: Apple Native CoreSVG 341-->
<!DOCTYPE svg
PUBLIC "-//W3C//DTD SVG 1.1//EN"
       "http://www.w3.org/Graphics/SVG/1.1/DTD/svg11.dtd">
<svg version="1.1" xmlns="http://www.w3.org/2000/svg" xmlns:xlink="http://www.w3.org/1999/xlink" viewBox="0 0 59.0859 58.7578">
 <g>
  <rect height="58.7578" opacity="0" width="59.0859" x="0" y="0"/>
  <path d="M32.1797 53.2626L32.1797 45.4951C38.9804 44.3421 44.3511 38.9802 45.4978 32.1797L53.2427 32.1797C51.9875 43.2286 43.2257 51.9975 32.1797 53.2626ZM26.6016 45.495L26.6016 53.2619C15.5751 51.995 6.8169 43.2271 5.56195 32.1797L13.3061 32.1797C14.4494 38.98 19.8047 44.3417 26.6016 45.495ZM53.2349 26.6016L45.4906 26.6016C44.3265 19.8234 38.9648 14.4833 32.1797 13.333L32.1797 5.58897C43.2083 6.85196 51.9599 15.5939 53.2349 26.6016ZM26.6016 13.3331C19.8202 14.4837 14.4739 19.8237 13.3133 26.6016L5.56982 26.6016C6.84448 15.5955 15.5925 6.85444 26.6016 5.58967Z" fill="white" fill-opacity="0.85"/>
  <path d="M29.3906 20.8828C30.9609 20.8828 32.1797 19.6406 32.1797 18.0703L32.1797 2.85938C32.1797 1.28906 30.9609 0.0234375 29.3906 0.0234375C27.8203 0.0234375 26.6016 1.28906 26.6016 2.85938L26.6016 18.0703C26.6016 19.6406 27.8203 20.8828 29.3906 20.8828ZM2.8125 32.1797L18.0469 32.1797C19.6172 32.1797 20.8594 30.9609 20.8594 29.3906C20.8594 27.8203 19.6172 26.6016 18.0469 26.6016L2.8125 26.6016C1.24219 26.6016 0 27.8203 0 29.3906C0 30.9609 1.24219 32.1797 2.8125 32.1797ZM29.3906 58.7578C30.9609 58.7578 32.1797 57.5156 32.1797 55.9453L32.1797 40.7344C32.1797 39.1406 30.9609 37.8984 29.3906 37.8984C27.8203 37.8984 26.6016 39.1406 26.6016 40.7344L26.6016 55.9453C26.6016 57.5156 27.8203 58.7578 29.3906 58.7578ZM40.6875 32.1797L55.8984 32.1797C57.4922 32.1797 58.7344 30.9609 58.7344 29.3906C58.7344 27.8203 57.4922 26.6016 55.8984 26.6016L40.6875 26.6016C39.1172 26.6016 37.875 27.8203 37.875 29.3906C37.875 30.9609 39.1172 32.1797 40.6875 32.1797Z" fill="white" fill-opacity="0.85"/>
 </g>
</svg>
