<?xml version="1.0" encoding="UTF-8"?>
<!--Generator: Apple Native CoreSVG 341-->
<!DOCTYPE svg
PUBLIC "-//W3C//DTD SVG 1.1//EN"
       "http://www.w3.org/Graphics/SVG/1.1/DTD/svg11.dtd">
<svg version="1.1" xmlns="http://www.w3.org/2000/svg" xmlns:xlink="http://www.w3.org/1999/xlink" viewBox="0 0 57.3516 57.0234">
 <g>
  <rect height="57.0234" opacity="0" width="57.3516" x="0" y="0"/>
  <path d="M26.8359 46.7439L26.8359 50.5407C15.9724 49.7489 7.28795 41.0666 6.46269 30.2109L10.2594 30.2109C11.0755 38.977 18.0619 45.961 26.8359 46.7439ZM30.1875 50.5395L30.1875 46.7429C38.9707 45.9506 45.9485 38.9705 46.764 30.2109L50.5605 30.2109C49.734 41.0589 41.042 49.7366 30.1875 50.5395ZM50.5665 26.8594L46.7699 26.8594C46.0099 18.0465 39.0093 11.027 30.1875 10.2334L30.1875 6.43688C41.0807 7.24086 49.7961 15.9583 50.5665 26.8594ZM26.8359 10.2324C18.0234 11.0166 11.0141 18.04 10.2535 26.8594L6.45678 26.8594C7.22598 15.9506 15.9336 7.22853 26.8359 6.43571Z" fill="white" fill-opacity="0.85"/>
  <path d="M28.5 19.2656C29.4609 19.2656 30.1875 18.5156 30.1875 17.5781L30.1875 1.71094C30.1875 0.773438 29.4609 0.0234375 28.5 0.0234375C27.5625 0.0234375 26.8359 0.773438 26.8359 1.71094L26.8359 17.5781C26.8359 18.5156 27.5625 19.2656 28.5 19.2656ZM1.6875 30.2109L17.5547 30.2109C18.4922 30.2109 19.2422 29.4609 19.2422 28.5234C19.2422 27.5859 18.4922 26.8594 17.5547 26.8594L1.6875 26.8594C0.75 26.8594 0 27.5859 0 28.5234C0 29.4609 0.75 30.2109 1.6875 30.2109ZM28.5 57.0234C29.4609 57.0234 30.1875 56.2734 30.1875 55.3359L30.1875 39.4688C30.1875 38.5312 29.4609 37.8047 28.5 37.8047C27.5625 37.8047 26.8359 38.5312 26.8359 39.4688L26.8359 55.3359C26.8359 56.2734 27.5625 57.0234 28.5 57.0234ZM39.4453 30.2109L55.3125 30.2109C56.25 30.2109 57 29.4609 57 28.5234C57 27.5859 56.25 26.8594 55.3125 26.8594L39.4453 26.8594C38.5078 26.8594 37.7578 27.5859 37.7578 28.5234C37.7578 29.4609 38.5078 30.2109 39.4453 30.2109Z" fill="white" fill-opacity="0.85"/>
 </g>
</svg>
